# xmcd
#
# Track frame offsets: 
#        150
#        12840
#        32182
#        46902
#        71820
#        86217
#        100897
#        113027
#        129362
#        144662
#        158320
#        167077
#        180825
#
# Disc length: 2623 seconds
#
# Revision: 10
# Processed by: cddbd v1.5.2PL0 Copyright (c) Steve Scherf et al.
# Submitted via: ExactAudioCopyFreeDBPlugin 1.0
#
DISCID=a00a3d0d
DTITLE=Tom Waits - The Early Years Vol. 1
DYEAR=1991
DGENRE=Rock
TTITLE0=Goin' Down Slow
TTITLE1=Poncho's Lament
TTITLE2=I'm Your Late Night Evening Prostitute
TTITLE3=Had Me A Girl
TTITLE4=Ice Cream Man
TTITLE5=Rockin' Chair
TTITLE6=Virginia Ave.
TTITLE7=Midnight Lullabye
TTITLE8=When You Ain't Got Nobody
TTITLE9=Little Trip To Heaven
TTITLE10=Frank's Song
TTITLE11=Looks Like I'm Up Shit Creek Again
TTITLE12=So Long I'll See Ya
EXTD=YEAR: 1991
EXTT0=
EXTT1=
EXTT2=
EXTT3=
EXTT4=
EXTT5=
EXTT6=
EXTT7=
EXTT8=
EXTT9=
EXTT10=
EXTT11=
EXTT12=
PLAYORDER=
